<svg width="17" height="16" viewBox="0 0 17 16" fill="none" xmlns="http://www.w3.org/2000/svg">
<g clip-path="url(#clip0_299_1353)">
<g clip-path="url(#clip1_299_1353)">
<g clip-path="url(#clip2_299_1353)">
<path fill-rule="evenodd" clip-rule="evenodd" d="M4.07686 3.45291L8.94995 7.94124L13.8231 3.45291H4.07686ZM15.3593 4.09277L9.50767 9.48229C9.19965 9.76599 8.70025 9.76599 8.39223 9.48229L2.5407 4.09277C2.53194 4.13866 2.52741 4.18563 2.52741 4.23318V11.7668C2.52741 11.9785 2.61702 12.1786 2.77148 12.3239C2.92541 12.4686 3.13067 12.5471 3.34119 12.5471H14.5588C14.7693 12.5471 14.9745 12.4686 15.1285 12.3239C15.2829 12.1786 15.3725 11.9785 15.3725 11.7668V4.23318C15.3725 4.18563 15.368 4.13866 15.3593 4.09277ZM1.64461 2.65941C2.09174 2.239 2.70168 2 3.34119 2H14.5588C15.1983 2 15.8082 2.239 16.2553 2.65941C16.7019 3.07931 16.95 3.64568 16.95 4.23318V11.7668C16.95 12.3543 16.7019 12.9207 16.2553 13.3406C15.8082 13.761 15.1983 14 14.5588 14H3.34119C2.70168 14 2.09174 13.761 1.64461 13.3406C1.19802 12.9207 0.949951 12.3543 0.949951 11.7668V4.23318C0.949951 3.64568 1.19802 3.07931 1.64461 2.65941Z" fill="#4A2182"/>
</g>
</g>
</g>
<defs>
<clipPath id="clip0_299_1353">
<rect width="16" height="16" fill="white" transform="translate(0.949951)"/>
</clipPath>
<clipPath id="clip1_299_1353">
<rect width="16" height="16" fill="white" transform="translate(0.949951)"/>
</clipPath>
<clipPath id="clip2_299_1353">
<rect width="16" height="16" fill="white" transform="translate(0.949951)"/>
</clipPath>
</defs>
</svg>
