<svg width="16" height="16" viewBox="0 0 16 16" fill="none" xmlns="http://www.w3.org/2000/svg">
<g clip-path="url(#clip0_299_1342)">
<g clip-path="url(#clip1_299_1342)">
<mask id="mask0_299_1342" style="mask-type:luminance" maskUnits="userSpaceOnUse" x="0" y="0" width="16" height="16">
<path d="M16 0H0V16H16V0Z" fill="white"/>
</mask>
<g mask="url(#mask0_299_1342)">
<path fill-rule="evenodd" clip-rule="evenodd" d="M2.46256 1.51747C2.21191 1.51747 1.97152 1.61704 1.79428 1.79428C1.62176 1.9668 1.52283 2.19916 1.51768 2.44257C1.71416 5.57102 3.04553 8.52062 5.26246 10.7375C7.47938 12.9545 10.429 14.2858 13.5574 14.4823C13.8008 14.4772 14.0332 14.3782 14.2057 14.2057C14.383 14.0285 14.4825 13.7881 14.4825 13.5374V10.6435L11.2999 9.3704L10.3544 10.9461C10.1513 11.2847 9.72237 11.4109 9.36823 11.2362C7.36849 10.25 5.75001 8.63151 4.76378 6.63177C4.58912 6.27763 4.71529 5.84872 5.05389 5.64556L6.6296 4.70014L5.35653 1.51747H2.46256ZM0.721268 0.721268C1.18309 0.259448 1.80945 0 2.46256 0H5.87022C6.18047 0 6.45946 0.188888 6.57468 0.476948L8.27851 4.73652C8.41682 5.08228 8.28374 5.47731 7.96441 5.66891L6.45807 6.57271C7.18759 7.79217 8.20783 8.81241 9.42729 9.54193L10.3311 8.03559C10.5227 7.71626 10.9177 7.58318 11.2635 7.72149L15.5231 9.42531C15.8111 9.54054 16 9.81953 16 10.1298V13.5374C16 14.1905 15.7406 14.8169 15.2787 15.2787C14.8169 15.7406 14.1905 16 13.5374 16C13.5221 16 13.5067 15.9995 13.4914 15.9986C9.98335 15.7854 6.6746 14.2957 4.18944 11.8106C1.70429 9.3254 0.214584 6.01665 0.00139719 2.50859C0.000465929 2.49326 0 2.47791 0 2.46256C0 1.80945 0.259448 1.18309 0.721268 0.721268Z" fill="#4A2182"/>
</g>
</g>
</g>
<defs>
<clipPath id="clip0_299_1342">
<rect width="16" height="16" fill="white"/>
</clipPath>
<clipPath id="clip1_299_1342">
<rect width="16" height="16" fill="white"/>
</clipPath>
</defs>
</svg>
